<?xml version="1.0" encoding="utf-8"?>
<svg viewBox="0 0 500 500" xmlns="http://www.w3.org/2000/svg">
  <path d="M 365.798 78.874 C 385.353 68.905 393.743 74.807 390.966 96.58 L 381.574 170.241 C 380.819 176.164 379.545 180.845 377.753 184.283 C 392.005 207.611 400.181 234.806 400.181 263.842 C 400.181 350.515 327.335 420.777 237.476 420.777 C 147.617 420.777 74.771 350.515 74.771 263.842 C 74.771 235.215 82.718 208.378 96.6 185.272 C 92.42 181.592 89.66 174.504 88.322 164.009 L 80.134 99.799 C 76.956 74.875 86.56 68.119 108.944 79.531 L 166.613 108.932 C 171.97 111.663 176.136 114.455 179.111 117.306 C 197.228 110.589 216.906 106.907 237.476 106.907 C 257.052 106.907 275.82 110.242 293.204 116.354 C 295.071 115.089 297.217 113.839 299.642 112.602 Z" style="stroke: rgb(0, 0, 0); fill: none;"/>
</svg>